<mxfile host="Electron" agent="Mozilla/5.0 (Windows NT 10.0; Win64; x64) AppleWebKit/537.36 (KHTML, like Gecko) draw.io/25.0.2 Chrome/128.0.6613.186 Electron/32.2.5 Safari/537.36" version="25.0.2">
  <diagram name="Page-1" id="AxVcKdgpKXUJfo954AHs">
    <mxGraphModel dx="1089" dy="689" grid="1" gridSize="10" guides="1" tooltips="1" connect="1" arrows="1" fold="1" page="1" pageScale="1" pageWidth="850" pageHeight="1100" math="0" shadow="0">
      <root>
        <mxCell id="0" />
        <mxCell id="1" parent="0" />
        <mxCell id="7GQsibB7IYgHVsLxgUlr-1" value="" style="rounded=0;whiteSpace=wrap;html=1;" vertex="1" parent="1">
          <mxGeometry x="120" y="120" width="800" height="450" as="geometry" />
        </mxCell>
        <mxCell id="7GQsibB7IYgHVsLxgUlr-2" value="" style="rounded=1;whiteSpace=wrap;html=1;" vertex="1" parent="1">
          <mxGeometry x="160" y="210" width="230" height="170" as="geometry" />
        </mxCell>
        <mxCell id="7GQsibB7IYgHVsLxgUlr-3" value="" style="endArrow=none;html=1;rounded=0;entryX=1.002;entryY=0.162;entryDx=0;entryDy=0;exitX=0.007;exitY=0.153;exitDx=0;exitDy=0;exitPerimeter=0;entryPerimeter=0;" edge="1" parent="1" source="7GQsibB7IYgHVsLxgUlr-2" target="7GQsibB7IYgHVsLxgUlr-2">
          <mxGeometry width="50" height="50" relative="1" as="geometry">
            <mxPoint x="160" y="260" as="sourcePoint" />
            <mxPoint x="210" y="220" as="targetPoint" />
          </mxGeometry>
        </mxCell>
        <mxCell id="7GQsibB7IYgHVsLxgUlr-4" value="Employees" style="text;html=1;align=center;verticalAlign=middle;whiteSpace=wrap;rounded=0;" vertex="1" parent="1">
          <mxGeometry x="170" y="210" width="60" height="30" as="geometry" />
        </mxCell>
        <mxCell id="7GQsibB7IYgHVsLxgUlr-5" value="" style="endArrow=none;html=1;rounded=0;entryX=1;entryY=0.406;entryDx=0;entryDy=0;entryPerimeter=0;exitX=0.017;exitY=0.402;exitDx=0;exitDy=0;exitPerimeter=0;" edge="1" parent="1" target="7GQsibB7IYgHVsLxgUlr-2">
          <mxGeometry width="50" height="50" relative="1" as="geometry">
            <mxPoint x="160.00000000000009" y="278.34" as="sourcePoint" />
            <mxPoint x="388.84999999999997" y="277.65999999999997" as="targetPoint" />
          </mxGeometry>
        </mxCell>
        <mxCell id="7GQsibB7IYgHVsLxgUlr-6" value="Employee Detail 1" style="text;html=1;align=center;verticalAlign=middle;whiteSpace=wrap;rounded=0;" vertex="1" parent="1">
          <mxGeometry x="160" y="240" width="230" height="30" as="geometry" />
        </mxCell>
        <mxCell id="7GQsibB7IYgHVsLxgUlr-7" value="" style="endArrow=none;html=1;rounded=0;entryX=1.005;entryY=0.65;entryDx=0;entryDy=0;entryPerimeter=0;" edge="1" parent="1" target="7GQsibB7IYgHVsLxgUlr-2">
          <mxGeometry width="50" height="50" relative="1" as="geometry">
            <mxPoint x="160" y="320" as="sourcePoint" />
            <mxPoint x="210" y="270" as="targetPoint" />
          </mxGeometry>
        </mxCell>
        <mxCell id="7GQsibB7IYgHVsLxgUlr-8" value="Employee Detail 2" style="text;html=1;align=center;verticalAlign=middle;whiteSpace=wrap;rounded=0;" vertex="1" parent="1">
          <mxGeometry x="160" y="280" width="230" height="30" as="geometry" />
        </mxCell>
        <mxCell id="7GQsibB7IYgHVsLxgUlr-10" value="" style="rounded=1;whiteSpace=wrap;html=1;" vertex="1" parent="1">
          <mxGeometry x="140" y="140" width="760" height="50" as="geometry" />
        </mxCell>
        <mxCell id="7GQsibB7IYgHVsLxgUlr-12" value="" style="endArrow=none;html=1;rounded=0;" edge="1" parent="1">
          <mxGeometry width="50" height="50" relative="1" as="geometry">
            <mxPoint x="160" y="154.83" as="sourcePoint" />
            <mxPoint x="180" y="154.83" as="targetPoint" />
          </mxGeometry>
        </mxCell>
        <mxCell id="7GQsibB7IYgHVsLxgUlr-13" value="" style="endArrow=none;html=1;rounded=0;" edge="1" parent="1">
          <mxGeometry width="50" height="50" relative="1" as="geometry">
            <mxPoint x="160" y="164.83" as="sourcePoint" />
            <mxPoint x="180" y="164.83" as="targetPoint" />
          </mxGeometry>
        </mxCell>
        <mxCell id="7GQsibB7IYgHVsLxgUlr-14" value="" style="endArrow=none;html=1;rounded=0;" edge="1" parent="1">
          <mxGeometry width="50" height="50" relative="1" as="geometry">
            <mxPoint x="160" y="174.83" as="sourcePoint" />
            <mxPoint x="180" y="174.83" as="targetPoint" />
          </mxGeometry>
        </mxCell>
        <mxCell id="7GQsibB7IYgHVsLxgUlr-15" value="Home" style="text;html=1;align=center;verticalAlign=middle;whiteSpace=wrap;rounded=0;" vertex="1" parent="1">
          <mxGeometry x="210" y="150" width="60" height="30" as="geometry" />
        </mxCell>
        <mxCell id="7GQsibB7IYgHVsLxgUlr-16" value="Logout" style="text;html=1;align=center;verticalAlign=middle;whiteSpace=wrap;rounded=0;" vertex="1" parent="1">
          <mxGeometry x="290" y="150" width="60" height="30" as="geometry" />
        </mxCell>
        <mxCell id="7GQsibB7IYgHVsLxgUlr-17" value="" style="endArrow=classic;html=1;rounded=0;" edge="1" parent="1" target="7GQsibB7IYgHVsLxgUlr-15">
          <mxGeometry width="50" height="50" relative="1" as="geometry">
            <mxPoint x="270" y="110" as="sourcePoint" />
            <mxPoint x="280" y="50" as="targetPoint" />
          </mxGeometry>
        </mxCell>
        <mxCell id="7GQsibB7IYgHVsLxgUlr-18" value="Redirect user to the homepage of the application" style="text;html=1;align=center;verticalAlign=middle;whiteSpace=wrap;rounded=0;" vertex="1" parent="1">
          <mxGeometry x="250" y="70" width="130" height="40" as="geometry" />
        </mxCell>
        <mxCell id="7GQsibB7IYgHVsLxgUlr-19" value="" style="endArrow=classic;html=1;rounded=0;entryX=0.606;entryY=0.01;entryDx=0;entryDy=0;entryPerimeter=0;exitX=0.146;exitY=1.013;exitDx=0;exitDy=0;exitPerimeter=0;" edge="1" parent="1" source="7GQsibB7IYgHVsLxgUlr-20" target="7GQsibB7IYgHVsLxgUlr-16">
          <mxGeometry width="50" height="50" relative="1" as="geometry">
            <mxPoint x="430" y="100" as="sourcePoint" />
            <mxPoint x="480" y="50" as="targetPoint" />
          </mxGeometry>
        </mxCell>
        <mxCell id="7GQsibB7IYgHVsLxgUlr-20" value="Logs the user out of the application" style="text;html=1;align=center;verticalAlign=middle;whiteSpace=wrap;rounded=0;" vertex="1" parent="1">
          <mxGeometry x="390" y="70" width="100" height="35" as="geometry" />
        </mxCell>
        <mxCell id="7GQsibB7IYgHVsLxgUlr-22" value="" style="labelPosition=right;align=left;strokeWidth=1;shape=mxgraph.mockup.markup.curlyBrace;html=1;shadow=0;dashed=0;strokeColor=#999999;direction=north;" vertex="1" parent="1">
          <mxGeometry x="110" y="210" width="40" height="180" as="geometry" />
        </mxCell>
        <mxCell id="7GQsibB7IYgHVsLxgUlr-23" value="Shows details of the employees in the system" style="text;html=1;align=center;verticalAlign=middle;whiteSpace=wrap;rounded=0;" vertex="1" parent="1">
          <mxGeometry x="40" y="285" width="80" height="30" as="geometry" />
        </mxCell>
        <mxCell id="7GQsibB7IYgHVsLxgUlr-45" value="" style="rounded=1;whiteSpace=wrap;html=1;" vertex="1" parent="1">
          <mxGeometry x="160" y="390" width="230" height="170" as="geometry" />
        </mxCell>
        <mxCell id="7GQsibB7IYgHVsLxgUlr-46" value="" style="endArrow=none;html=1;rounded=0;entryX=1.002;entryY=0.162;entryDx=0;entryDy=0;exitX=0.007;exitY=0.153;exitDx=0;exitDy=0;exitPerimeter=0;entryPerimeter=0;" edge="1" parent="1" source="7GQsibB7IYgHVsLxgUlr-45" target="7GQsibB7IYgHVsLxgUlr-45">
          <mxGeometry width="50" height="50" relative="1" as="geometry">
            <mxPoint x="160" y="440" as="sourcePoint" />
            <mxPoint x="210" y="400" as="targetPoint" />
          </mxGeometry>
        </mxCell>
        <mxCell id="7GQsibB7IYgHVsLxgUlr-47" value="Unverified Employees" style="text;html=1;align=center;verticalAlign=middle;whiteSpace=wrap;rounded=0;" vertex="1" parent="1">
          <mxGeometry x="170" y="390" width="140" height="30" as="geometry" />
        </mxCell>
        <mxCell id="7GQsibB7IYgHVsLxgUlr-48" value="" style="endArrow=none;html=1;rounded=0;entryX=1;entryY=0.406;entryDx=0;entryDy=0;entryPerimeter=0;exitX=0.017;exitY=0.402;exitDx=0;exitDy=0;exitPerimeter=0;" edge="1" parent="1" target="7GQsibB7IYgHVsLxgUlr-45">
          <mxGeometry width="50" height="50" relative="1" as="geometry">
            <mxPoint x="160.00000000000009" y="458.34" as="sourcePoint" />
            <mxPoint x="388.84999999999997" y="457.65999999999997" as="targetPoint" />
          </mxGeometry>
        </mxCell>
        <mxCell id="7GQsibB7IYgHVsLxgUlr-49" value="Unverified Employee Detail 1" style="text;html=1;align=center;verticalAlign=middle;whiteSpace=wrap;rounded=0;" vertex="1" parent="1">
          <mxGeometry x="160" y="420" width="230" height="30" as="geometry" />
        </mxCell>
        <mxCell id="7GQsibB7IYgHVsLxgUlr-50" value="" style="endArrow=none;html=1;rounded=0;entryX=1.005;entryY=0.65;entryDx=0;entryDy=0;entryPerimeter=0;" edge="1" parent="1" target="7GQsibB7IYgHVsLxgUlr-45">
          <mxGeometry width="50" height="50" relative="1" as="geometry">
            <mxPoint x="160" y="500" as="sourcePoint" />
            <mxPoint x="210" y="450" as="targetPoint" />
          </mxGeometry>
        </mxCell>
        <mxCell id="7GQsibB7IYgHVsLxgUlr-51" value="Unverified Employee Detail 2" style="text;html=1;align=center;verticalAlign=middle;whiteSpace=wrap;rounded=0;" vertex="1" parent="1">
          <mxGeometry x="160" y="460" width="230" height="30" as="geometry" />
        </mxCell>
        <mxCell id="7GQsibB7IYgHVsLxgUlr-54" value="View Employees" style="rounded=1;whiteSpace=wrap;html=1;fillColor=#CCCCCC;strokeColor=#000000;" vertex="1" parent="1">
          <mxGeometry x="205" y="330" width="140" height="35" as="geometry" />
        </mxCell>
        <mxCell id="7GQsibB7IYgHVsLxgUlr-55" value="" style="endArrow=classic;html=1;rounded=0;entryX=0;entryY=0.5;entryDx=0;entryDy=0;" edge="1" parent="1" target="7GQsibB7IYgHVsLxgUlr-54">
          <mxGeometry width="50" height="50" relative="1" as="geometry">
            <mxPoint x="110" y="390" as="sourcePoint" />
            <mxPoint x="50" y="400" as="targetPoint" />
          </mxGeometry>
        </mxCell>
        <mxCell id="7GQsibB7IYgHVsLxgUlr-56" value="Button to view all employees in the system" style="text;html=1;align=center;verticalAlign=middle;whiteSpace=wrap;rounded=0;" vertex="1" parent="1">
          <mxGeometry x="30" y="380" width="90" height="30" as="geometry" />
        </mxCell>
        <mxCell id="7GQsibB7IYgHVsLxgUlr-57" value="Verify Employees" style="rounded=1;whiteSpace=wrap;html=1;fillColor=#CCCCCC;strokeColor=#000000;" vertex="1" parent="1">
          <mxGeometry x="210" y="515" width="140" height="35" as="geometry" />
        </mxCell>
        <mxCell id="7GQsibB7IYgHVsLxgUlr-59" value="" style="rounded=1;whiteSpace=wrap;html=1;" vertex="1" parent="1">
          <mxGeometry x="404.42999999999995" y="210" width="230" height="170" as="geometry" />
        </mxCell>
        <mxCell id="7GQsibB7IYgHVsLxgUlr-60" value="" style="endArrow=none;html=1;rounded=0;entryX=1.002;entryY=0.162;entryDx=0;entryDy=0;exitX=0.007;exitY=0.153;exitDx=0;exitDy=0;exitPerimeter=0;entryPerimeter=0;" edge="1" parent="1" source="7GQsibB7IYgHVsLxgUlr-59" target="7GQsibB7IYgHVsLxgUlr-59">
          <mxGeometry width="50" height="50" relative="1" as="geometry">
            <mxPoint x="404.42999999999995" y="260" as="sourcePoint" />
            <mxPoint x="454.42999999999995" y="220" as="targetPoint" />
          </mxGeometry>
        </mxCell>
        <mxCell id="7GQsibB7IYgHVsLxgUlr-61" value="Medicines" style="text;html=1;align=center;verticalAlign=middle;whiteSpace=wrap;rounded=0;" vertex="1" parent="1">
          <mxGeometry x="414.42999999999995" y="210" width="60" height="30" as="geometry" />
        </mxCell>
        <mxCell id="7GQsibB7IYgHVsLxgUlr-62" value="" style="endArrow=none;html=1;rounded=0;entryX=1;entryY=0.406;entryDx=0;entryDy=0;entryPerimeter=0;exitX=0.017;exitY=0.402;exitDx=0;exitDy=0;exitPerimeter=0;" edge="1" parent="1" target="7GQsibB7IYgHVsLxgUlr-59">
          <mxGeometry width="50" height="50" relative="1" as="geometry">
            <mxPoint x="404.43000000000006" y="278.34" as="sourcePoint" />
            <mxPoint x="633.28" y="277.65999999999997" as="targetPoint" />
          </mxGeometry>
        </mxCell>
        <mxCell id="7GQsibB7IYgHVsLxgUlr-63" value="Medicine Detail 1" style="text;html=1;align=center;verticalAlign=middle;whiteSpace=wrap;rounded=0;" vertex="1" parent="1">
          <mxGeometry x="404.42999999999995" y="240" width="230" height="30" as="geometry" />
        </mxCell>
        <mxCell id="7GQsibB7IYgHVsLxgUlr-64" value="" style="endArrow=none;html=1;rounded=0;entryX=1.005;entryY=0.65;entryDx=0;entryDy=0;entryPerimeter=0;" edge="1" parent="1" target="7GQsibB7IYgHVsLxgUlr-59">
          <mxGeometry width="50" height="50" relative="1" as="geometry">
            <mxPoint x="404.42999999999995" y="320" as="sourcePoint" />
            <mxPoint x="454.42999999999995" y="270" as="targetPoint" />
          </mxGeometry>
        </mxCell>
        <mxCell id="7GQsibB7IYgHVsLxgUlr-65" value="Medicine Detail 2" style="text;html=1;align=center;verticalAlign=middle;whiteSpace=wrap;rounded=0;" vertex="1" parent="1">
          <mxGeometry x="404.42999999999995" y="280" width="230" height="30" as="geometry" />
        </mxCell>
        <mxCell id="7GQsibB7IYgHVsLxgUlr-67" value="View Medicines" style="rounded=1;whiteSpace=wrap;html=1;fillColor=#CCCCCC;strokeColor=#000000;" vertex="1" parent="1">
          <mxGeometry x="460" y="330" width="140" height="35" as="geometry" />
        </mxCell>
        <mxCell id="7GQsibB7IYgHVsLxgUlr-75" value="" style="rounded=1;whiteSpace=wrap;html=1;" vertex="1" parent="1">
          <mxGeometry x="414.41999999999996" y="390" width="230" height="170" as="geometry" />
        </mxCell>
        <mxCell id="7GQsibB7IYgHVsLxgUlr-76" value="" style="endArrow=none;html=1;rounded=0;entryX=1.002;entryY=0.162;entryDx=0;entryDy=0;exitX=0.007;exitY=0.153;exitDx=0;exitDy=0;exitPerimeter=0;entryPerimeter=0;" edge="1" parent="1" source="7GQsibB7IYgHVsLxgUlr-75" target="7GQsibB7IYgHVsLxgUlr-75">
          <mxGeometry width="50" height="50" relative="1" as="geometry">
            <mxPoint x="414.41999999999996" y="440" as="sourcePoint" />
            <mxPoint x="464.41999999999996" y="400" as="targetPoint" />
          </mxGeometry>
        </mxCell>
        <mxCell id="7GQsibB7IYgHVsLxgUlr-77" value="Lab Tests" style="text;html=1;align=center;verticalAlign=middle;whiteSpace=wrap;rounded=0;" vertex="1" parent="1">
          <mxGeometry x="424.41999999999996" y="390" width="60" height="30" as="geometry" />
        </mxCell>
        <mxCell id="7GQsibB7IYgHVsLxgUlr-78" value="" style="endArrow=none;html=1;rounded=0;entryX=1;entryY=0.406;entryDx=0;entryDy=0;entryPerimeter=0;exitX=0.017;exitY=0.402;exitDx=0;exitDy=0;exitPerimeter=0;" edge="1" parent="1" target="7GQsibB7IYgHVsLxgUlr-75">
          <mxGeometry width="50" height="50" relative="1" as="geometry">
            <mxPoint x="414.4200000000001" y="458.34" as="sourcePoint" />
            <mxPoint x="643.27" y="457.65999999999997" as="targetPoint" />
          </mxGeometry>
        </mxCell>
        <mxCell id="7GQsibB7IYgHVsLxgUlr-79" value="Lab Test Detail 1" style="text;html=1;align=center;verticalAlign=middle;whiteSpace=wrap;rounded=0;" vertex="1" parent="1">
          <mxGeometry x="414.41999999999996" y="420" width="230" height="30" as="geometry" />
        </mxCell>
        <mxCell id="7GQsibB7IYgHVsLxgUlr-80" value="" style="endArrow=none;html=1;rounded=0;entryX=1.005;entryY=0.65;entryDx=0;entryDy=0;entryPerimeter=0;" edge="1" parent="1" target="7GQsibB7IYgHVsLxgUlr-75">
          <mxGeometry width="50" height="50" relative="1" as="geometry">
            <mxPoint x="414.41999999999996" y="500" as="sourcePoint" />
            <mxPoint x="464.41999999999996" y="450" as="targetPoint" />
          </mxGeometry>
        </mxCell>
        <mxCell id="7GQsibB7IYgHVsLxgUlr-81" value="Lab Test Detail 2" style="text;html=1;align=center;verticalAlign=middle;whiteSpace=wrap;rounded=0;" vertex="1" parent="1">
          <mxGeometry x="414.41999999999996" y="460" width="230" height="30" as="geometry" />
        </mxCell>
        <mxCell id="7GQsibB7IYgHVsLxgUlr-82" value="View Lab Test" style="rounded=1;whiteSpace=wrap;html=1;fillColor=#CCCCCC;strokeColor=#000000;" vertex="1" parent="1">
          <mxGeometry x="460" y="515" width="140" height="35" as="geometry" />
        </mxCell>
        <mxCell id="7GQsibB7IYgHVsLxgUlr-83" value="" style="rounded=1;whiteSpace=wrap;html=1;" vertex="1" parent="1">
          <mxGeometry x="660" y="210" width="230" height="170" as="geometry" />
        </mxCell>
        <mxCell id="7GQsibB7IYgHVsLxgUlr-84" value="" style="endArrow=none;html=1;rounded=0;entryX=1.002;entryY=0.162;entryDx=0;entryDy=0;exitX=0.007;exitY=0.153;exitDx=0;exitDy=0;exitPerimeter=0;entryPerimeter=0;" edge="1" parent="1" source="7GQsibB7IYgHVsLxgUlr-83" target="7GQsibB7IYgHVsLxgUlr-83">
          <mxGeometry width="50" height="50" relative="1" as="geometry">
            <mxPoint x="660" y="260" as="sourcePoint" />
            <mxPoint x="710" y="220" as="targetPoint" />
          </mxGeometry>
        </mxCell>
        <mxCell id="7GQsibB7IYgHVsLxgUlr-85" value="Specializations" style="text;html=1;align=center;verticalAlign=middle;whiteSpace=wrap;rounded=0;" vertex="1" parent="1">
          <mxGeometry x="670" y="210" width="80" height="30" as="geometry" />
        </mxCell>
        <mxCell id="7GQsibB7IYgHVsLxgUlr-86" value="" style="endArrow=none;html=1;rounded=0;entryX=1;entryY=0.406;entryDx=0;entryDy=0;entryPerimeter=0;exitX=0.017;exitY=0.402;exitDx=0;exitDy=0;exitPerimeter=0;" edge="1" parent="1" target="7GQsibB7IYgHVsLxgUlr-83">
          <mxGeometry width="50" height="50" relative="1" as="geometry">
            <mxPoint x="660.0000000000001" y="278.34" as="sourcePoint" />
            <mxPoint x="888.8499999999999" y="277.65999999999997" as="targetPoint" />
          </mxGeometry>
        </mxCell>
        <mxCell id="7GQsibB7IYgHVsLxgUlr-87" value="Specialization Detail 1" style="text;html=1;align=center;verticalAlign=middle;whiteSpace=wrap;rounded=0;" vertex="1" parent="1">
          <mxGeometry x="660" y="240" width="230" height="30" as="geometry" />
        </mxCell>
        <mxCell id="7GQsibB7IYgHVsLxgUlr-88" value="" style="endArrow=none;html=1;rounded=0;entryX=1.005;entryY=0.65;entryDx=0;entryDy=0;entryPerimeter=0;" edge="1" parent="1" target="7GQsibB7IYgHVsLxgUlr-83">
          <mxGeometry width="50" height="50" relative="1" as="geometry">
            <mxPoint x="660" y="320" as="sourcePoint" />
            <mxPoint x="710" y="270" as="targetPoint" />
          </mxGeometry>
        </mxCell>
        <mxCell id="7GQsibB7IYgHVsLxgUlr-89" value="Specialization Detail 2" style="text;html=1;align=center;verticalAlign=middle;whiteSpace=wrap;rounded=0;" vertex="1" parent="1">
          <mxGeometry x="660" y="280" width="230" height="30" as="geometry" />
        </mxCell>
        <mxCell id="7GQsibB7IYgHVsLxgUlr-90" value="View&amp;nbsp;&lt;span style=&quot;color: rgba(0, 0, 0, 0); font-family: monospace; font-size: 0px; text-align: start; text-wrap: nowrap;&quot;&gt;%3CmxGraphModel%3E%3Croot%3E%3CmxCell%20id%3D%220%22%2F%3E%3CmxCell%20id%3D%221%22%20parent%3D%220%22%2F%3E%3CmxCell%20id%3D%222%22%20value%3D%22View%20Lab%20Test%22%20style%3D%22rounded%3D1%3BwhiteSpace%3Dwrap%3Bhtml%3D1%3BfillColor%3D%23CCCCCC%3BstrokeColor%3D%23000000%3B%22%20vertex%3D%221%22%20parent%3D%221%22%3E%3CmxGeometry%20x%3D%22460%22%20y%3D%22515%22%20width%3D%22140%22%20height%3D%2235%22%20as%3D%22geometry%22%2F%3E%3C%2FmxCell%3E%3C%2Froot%3E%3C%2FmxGraphModel%3E&lt;/span&gt;Specializations" style="rounded=1;whiteSpace=wrap;html=1;fillColor=#CCCCCC;strokeColor=#000000;" vertex="1" parent="1">
          <mxGeometry x="705" y="330" width="140" height="35" as="geometry" />
        </mxCell>
      </root>
    </mxGraphModel>
  </diagram>
</mxfile>
